PathFileType	4	(X/Y/Z)	OpenSim_static_markers.trc
DataRate	CameraRate	NumFrames	NumMarkers	Units	OrigDataRate	OrigDataStartFrame	OrigNumFrames
100	100	6	39	m	100	1	6
Frame#	Time	APEX	L1MT	L2MT	L5MT	LASI	LCAL	LGTR	LLEP	LLML	LMEP	LMML	LPS1	LPS2	LSH1	LSH2	LSH3	LTH1	LTH2	LTH3	LTTB	R1MT	R2MT	R5MT	RASI	RCAL	RGTR	RLEP	RLML	RMEP	RMML	RPS1	RPS2	RSH1	RSH2	RSH3	RTH1	RTH2	RTH3	RTTB
				X1	Y1	Z1	X2	Y2	Z2	X3	Y3	Z3	X4	Y4	Z4	X5	Y5	Z5	X6	Y6	Z6	X7	Y7	Z7	X8	Y8	Z8	X9	Y9	Z9	X10	Y10	Z10	X11	Y11	Z11	X12	Y12	Z12	X13	Y13	Z13	X14	Y14	Z14	X15	Y15	Z15	X16	Y16	Z16	X17	Y17	Z17	X18	Y18	Z18	X19	Y19	Z19	X20	Y20	Z20	X21	Y21	Z21	X22	Y22	Z22	X23	Y23	Z23	X24	Y24	Z24	X25	Y25	Z25	X26	Y26	Z26	X27	Y27	Z27	X28	Y28	Z28	X29	Y29	Z29	X30	Y30	Z30	X31	Y31	Z31	X32	Y32	Z32	X33	Y33	Z33	X34	Y34	Z34	X35	Y35	Z35	X36	Y36	Z36	X37	Y37	Z37	X38	Y38	Z38	X39		Y39	Z39	

1	0	0.78539100	1.69019700	-0.53552800	0.77878400	0.05404600	-0.57639700	0.79046700	0.06465300	-0.62351300	0.75220000	0.03166800	-0.66900800	0.75807900	0.96570600	-0.67067500	0.58983300	0.04046700	-0.60102500	0.65596700	0.95099300	-0.70038500	0.73400200	0.47058800	-0.66203300	0.64922000	0.08911500	-0.64356700	0.70178100	0.46569500	-0.54560700	0.65878300	0.09832200	-0.56533500	0.60386100	1.07729900	-0.57497500	0.57848000	1.01064200	-0.58135700	0.68134700	0.43041200	-0.68304500	0.67221300	0.33278900	-0.69090100	0.72231900	0.31830800	-0.67359700	0.70234600	0.78584700	-0.72761200	0.72532300	0.68800900	-0.70415600	0.77808500	0.70713600	-0.67830700	0.75721600	0.40936100	-0.61558500	0.82811700	0.05096100	-0.37593700	0.82856300	0.06234300	-0.33768800	0.77538700	0.03378100	-0.29753600	0.73998600	0.96125100	-0.39290100	0.62572600	0.04723600	-0.39981300	0.65697900	0.92889500	-0.35381900	0.75411800	0.48370500	-0.34902100	0.67362800	0.09458000	-0.34712000	0.76652700	0.46879800	-0.46533400	0.71003200	0.09692800	-0.41689900	0.60206000	1.07986100	-0.52463400	0.57406100	1.00686300	-0.51338900	0.77585200	0.40135700	-0.32745800	0.75891200	0.29773900	-0.32579200	0.70160300	0.30598500	-0.31361400	0.71115600	0.82960600	-0.33730700	0.73485600	0.72629100	-0.33908300	0.67767400	0.71346000	-0.34198100	0.79786500	0.41409200	-0.38537200
2	0.01000000	0.78760100	1.69011500	-0.53436000	0.77897000	0.05410800	-0.57659500	0.79049900	0.06454800	-0.62365900	0.75222500	0.03169500	-0.66915600	0.75966700	0.96550700	-0.66878400	0.58985700	0.04071700	-0.60083700	0.65779700	0.95088200	-0.69873300	0.73792900	0.46995800	-0.66037800	0.64938700	0.08931700	-0.64349200	0.70519200	0.46439300	-0.54424000	0.65905800	0.09833600	-0.56516500	0.60613900	1.07723500	-0.57336900	0.58051800	1.01070500	-0.57903000	0.68634400	0.43025800	-0.68056600	0.67351400	0.33245600	-0.68860900	0.72466900	0.31799400	-0.67265300	0.70469700	0.78536300	-0.72577700	0.72812600	0.68766100	-0.70230900	0.78069300	0.70698400	-0.67639500	0.76114700	0.40844800	-0.61439500	0.82825200	0.05099100	-0.37583000	0.82858100	0.06231800	-0.33763400	0.77536400	0.03376400	-0.29745300	0.74228800	0.96087500	-0.39084100	0.62576200	0.04723300	-0.39984500	0.65888500	0.92856500	-0.35220300	0.75645800	0.48359000	-0.34764900	0.67366400	0.09436500	-0.34700100	0.76864500	0.46862500	-0.46399200	0.71006200	0.09679100	-0.41677300	0.60398700	1.07994000	-0.52265100	0.57620000	1.00693100	-0.51151600	0.77752800	0.40065600	-0.32636400	0.75994000	0.29706500	-0.32500700	0.70342000	0.30659500	-0.31118800	0.71311700	0.82907500	-0.33574100	0.73666200	0.72596500	-0.33754300	0.67956900	0.71312500	-0.34040800	0.79971200	0.41354700	-0.38435400
3	0.02000000	0.78976000	1.68994500	-0.53318400	0.77915600	0.05408000	-0.57677400	0.79059700	0.06445500	-0.62373400	0.75222900	0.03165800	-0.66928700	0.76101900	0.96510400	-0.66691600	0.58991500	0.04091200	-0.60078300	0.65925500	0.95051600	-0.69706100	0.74250700	0.46941600	-0.65884200	0.64983200	0.08935300	-0.64318700	0.71317500	0.46522400	-0.54242700	0.65943200	0.09832400	-0.56503100	0.60842700	1.07692300	-0.57142100	0.58222600	1.01082000	-0.57722400	0.69144300	0.43002500	-0.67812300	0.67626800	0.33276400	-0.68709300	0.72753300	0.31761600	-0.67168400	0.70678000	0.78467700	-0.72379700	0.73082200	0.68699700	-0.70050100	0.78337300	0.70651700	-0.67454200	0.76559500	0.40736500	-0.61317700	0.82834600	0.05091700	-0.37575800	0.82859200	0.06224400	-0.33760900	0.77537700	0.03373200	-0.29735700	0.74471700	0.96054400	-0.38911900	0.62580200	0.04719900	-0.39984400	0.66118300	0.92842200	-0.35017600	0.75805800	0.48255200	-0.34639000	0.67371500	0.09418600	-0.34689700	0.77119100	0.46847900	-0.46264100	0.71006900	0.09667000	-0.41666000	0.60630700	1.07999300	-0.52075300	0.57830500	1.00702500	-0.50942500	0.77920200	0.39986200	-0.32520700	0.76096400	0.29644800	-0.32425000	0.70487600	0.30636500	-0.31019200	0.71455500	0.82815700	-0.33400600	0.73884500	0.72532200	-0.33604300	0.68160800	0.71280600	-0.33851900	0.80160600	0.41288800	-0.38317500
4	0.03000000	0.79195200	1.68954600	-0.53187800	0.77939700	0.05393000	-0.57700600	0.79071100	0.06431700	-0.62384100	0.75231000	0.03155600	-0.66951900	0.76221800	0.96432800	-0.66515800	0.59002000	0.04106200	-0.60080700	0.66063000	0.95011500	-0.69503800	0.74760000	0.46866900	-0.65729900	0.65031900	0.08958900	-0.64321200	0.71952700	0.46483300	-0.54106300	0.65990500	0.09832800	-0.56495500	0.61025600	1.07693300	-0.56935100	0.58422200	1.01066800	-0.57523100	0.69619800	0.43000200	-0.67632500	0.67955900	0.33354800	-0.68540200	0.73070200	0.31695000	-0.67083800	0.70904800	0.78384100	-0.72173200	0.73372200	0.68617400	-0.69873100	0.78611900	0.70615500	-0.67278700	0.77059800	0.40619900	-0.61198800	0.82839800	0.05082700	-0.37567900	0.82861100	0.06212800	-0.33761200	0.77532400	0.03366900	-0.29726500	0.74681400	0.95961800	-0.38728700	0.62580400	0.04717700	-0.39981700	0.66368200	0.92807900	-0.34810900	0.76028300	0.48198100	-0.34512900	0.67384600	0.09409600	-0.34674400	0.77376800	0.46818600	-0.46132200	0.71007600	0.09652200	-0.41651100	0.60851300	1.07943500	-0.51868300	0.58027100	1.00676600	-0.50725700	0.78095500	0.39901100	-0.32399700	0.76202600	0.29565800	-0.32349700	0.70628100	0.30619000	-0.30925000	0.71636500	0.82700800	-0.33226600	0.74103500	0.72487600	-0.33436300	0.68378100	0.71228200	-0.33659000	0.80373100	0.41211700	-0.38195200
5	0.04000000	0.79406800	1.68899400	-0.53063400	0.77980000	0.05365400	-0.57724300	0.79089300	0.06408100	-0.62404900	0.75233700	0.03131300	-0.66980400	0.76331000	0.96328800	-0.66318500	0.59020600	0.04142000	-0.60078000	0.66163600	0.94954400	-0.69345100	0.75328000	0.46766300	-0.65610900	0.65042900	0.09007100	-0.64311000	0.72576200	0.46348900	-0.53936500	0.66049600	0.09834200	-0.56495300	0.61224000	1.07636900	-0.56725700	0.58628400	1.01004900	-0.57339200	0.70144900	0.42980300	-0.67468600	0.68276500	0.33453600	-0.68313300	0.73429000	0.31623100	-0.67009000	0.71129100	0.78261600	-0.71967500	0.73675600	0.68520000	-0.69696500	0.78905300	0.70538500	-0.67095900	0.77616900	0.40487400	-0.61096200	0.82849900	0.05070600	-0.37562800	0.82859700	0.06192800	-0.33766900	0.77531900	0.03361500	-0.29712700	0.74915400	0.95876700	-0.38538600	0.62577200	0.04729500	-0.39959400	0.66608100	0.92749200	-0.34608200	0.76263700	0.48171300	-0.34385100	0.67408800	0.09407400	-0.34657500	0.77628600	0.46780400	-0.46003000	0.71013900	0.09646800	-0.41636700	0.61101000	1.07896100	-0.51655800	0.58235700	1.00641000	-0.50498200	0.78277800	0.39819600	-0.32266400	0.76317600	0.29491000	-0.32268900	0.70752300	0.30581300	-0.30855400	0.71855300	0.82626800	-0.33051600	0.74320400	0.72417900	-0.33258300	0.68591300	0.71180600	-0.33453200	0.80583100	0.41153300	-0.38068400
6	0.05000000	0.79613000	1.68822900	-0.52938400	0.78014000	0.05316700	-0.57769800	0.79110700	0.06349100	-0.62457600	0.75213000	0.03086800	-0.67022700	0.76416200	0.96189100	-0.66149200	0.59048100	0.04175500	-0.60078800	0.66297100	0.94874100	-0.69200300	0.75963600	0.46667100	-0.65506400	0.65076700	0.09049000	-0.64310100	0.73255600	0.46199100	-0.53735100	0.66147400	0.09856900	-0.56496100	0.61422600	1.07553600	-0.56507500	0.58807000	1.00953600	-0.57095600	0.70667100	0.42985000	-0.67361900	0.68651900	0.33468400	-0.68193200	0.73797800	0.31507600	-0.66947000	0.71354000	0.78111700	-0.71754500	0.74035600	0.68406300	-0.69517600	0.79214100	0.70446100	-0.66914900	0.78181000	0.40292500	-0.61019900	0.82858600	0.05043600	-0.37559400	0.82860900	0.06165800	-0.33775900	0.77529600	0.03355200	-0.29701700	0.75196200	0.95801500	-0.38375200	0.62533200	0.04674000	-0.39882200	0.66840600	0.92706700	-0.34389700	0.76476900	0.48064800	-0.34257600	0.67435200	0.09398900	-0.34644300	0.77884000	0.46740600	-0.45875400	0.71018300	0.09629600	-0.41620800	0.61292800	1.07845400	-0.51447100	0.58433800	1.00603200	-0.50254000	0.78469600	0.39741900	-0.32149000	0.76447400	0.29414300	-0.32180600	0.70770400	0.30385300	-0.31053800	0.72148300	0.82591000	-0.32819200	0.74563700	0.72342800	-0.33077400	0.68844800	0.71110300	-0.33254000	0.80834500	0.41069500	-0.37946900
